<?xml version="1.0" encoding="utf-8"?>
<svg xmlns="http://www.w3.org/2000/svg" xmlns:xlink="http://www.w3.org/1999/xlink" width="600" height="400" viewBox="0 0 600 400">
<defs>
  <clipPath id="clip00">
    <rect x="0" y="0" width="600" height="400"/>
  </clipPath>
</defs>
<polygon clip-path="url(#clip6600)" points="
0,400 600,400 600,0 0,0 
  " fill="#ffffff" fill-opacity="1"/>
<defs>
  <clipPath id="clip01">
    <rect x="120" y="0" width="421" height="400"/>
  </clipPath>
</defs>
<polygon clip-path="url(#clip6600)" points="
38.0857,360.065 580.315,360.065 580.315,11.811 38.0857,11.811 
  " fill="#ffffff" fill-opacity="1"/>
<defs>
  <clipPath id="clip02">
    <rect x="38" y="11" width="543" height="349"/>
  </clipPath>
</defs>
<polyline clip-path="url(#clip6602)" style="stroke:#000000; stroke-width:0.5; stroke-opacity:0.1; fill:none" points="
  38.0857,354.842 38.0857,17.0348 
  "/>
<polyline clip-path="url(#clip6602)" style="stroke:#000000; stroke-width:0.5; stroke-opacity:0.1; fill:none" points="
  173.643,354.842 173.643,17.0348 
  "/>
<polyline clip-path="url(#clip6602)" style="stroke:#000000; stroke-width:0.5; stroke-opacity:0.1; fill:none" points="
  309.2,354.842 309.2,17.0348 
  "/>
<polyline clip-path="url(#clip6602)" style="stroke:#000000; stroke-width:0.5; stroke-opacity:0.1; fill:none" points="
  444.758,354.842 444.758,17.0348 
  "/>
<polyline clip-path="url(#clip6602)" style="stroke:#000000; stroke-width:0.5; stroke-opacity:0.1; fill:none" points="
  580.315,354.842 580.315,17.0348 
  "/>
<polyline clip-path="url(#clip6602)" style="stroke:#000000; stroke-width:0.5; stroke-opacity:0.1; fill:none" points="
  46.2191,360.065 572.182,360.065 
  "/>
<polyline clip-path="url(#clip6602)" style="stroke:#000000; stroke-width:0.5; stroke-opacity:0.1; fill:none" points="
  46.2191,243.981 572.182,243.981 
  "/>
<polyline clip-path="url(#clip6602)" style="stroke:#000000; stroke-width:0.5; stroke-opacity:0.1; fill:none" points="
  46.2191,127.896 572.182,127.896 
  "/>
<polyline clip-path="url(#clip6602)" style="stroke:#000000; stroke-width:0.5; stroke-opacity:0.1; fill:none" points="
  46.2191,11.811 572.182,11.811 
  "/>
<polyline clip-path="url(#clip6600)" style="stroke:#000000; stroke-width:1; stroke-opacity:1; fill:none" points="
  38.0857,360.065 580.315,360.065 
  "/>
<polyline clip-path="url(#clip6600)" style="stroke:#000000; stroke-width:1; stroke-opacity:1; fill:none" points="
  38.0857,360.065 38.0857,11.811 
  "/>
<polyline clip-path="url(#clip6600)" style="stroke:#000000; stroke-width:1; stroke-opacity:1; fill:none" points="
  38.0857,360.065 38.0857,354.842 
  "/>
<polyline clip-path="url(#clip6600)" style="stroke:#000000; stroke-width:1; stroke-opacity:1; fill:none" points="
  173.643,360.065 173.643,354.842 
  "/>
<polyline clip-path="url(#clip6600)" style="stroke:#000000; stroke-width:1; stroke-opacity:1; fill:none" points="
  309.2,360.065 309.2,354.842 
  "/>
<polyline clip-path="url(#clip6600)" style="stroke:#000000; stroke-width:1; stroke-opacity:1; fill:none" points="
  444.758,360.065 444.758,354.842 
  "/>
<polyline clip-path="url(#clip6600)" style="stroke:#000000; stroke-width:1; stroke-opacity:1; fill:none" points="
  580.315,360.065 580.315,354.842 
  "/>
<polyline clip-path="url(#clip6600)" style="stroke:#000000; stroke-width:1; stroke-opacity:1; fill:none" points="
  38.0857,360.065 46.2191,360.065 
  "/>
<polyline clip-path="url(#clip6600)" style="stroke:#000000; stroke-width:1; stroke-opacity:1; fill:none" points="
  38.0857,243.981 46.2191,243.981 
  "/>
<polyline clip-path="url(#clip6600)" style="stroke:#000000; stroke-width:1; stroke-opacity:1; fill:none" points="
  38.0857,127.896 46.2191,127.896 
  "/>
<polyline clip-path="url(#clip6600)" style="stroke:#000000; stroke-width:1; stroke-opacity:1; fill:none" points="
  38.0857,11.811 46.2191,11.811 
  "/>
<g clip-path="url(#clip6600)">
<text style="fill:#000000; fill-opacity:1; font-family:Arial,Helvetica Neue,Helvetica,sans-serif; font-size:12; text-anchor:middle;" transform="rotate(0, 38.0857, 373.865)" x="38.0857" y="373.865">0</text>
</g>
<g clip-path="url(#clip6600)">
<text style="fill:#000000; fill-opacity:1; font-family:Arial,Helvetica Neue,Helvetica,sans-serif; font-size:12; text-anchor:middle;" transform="rotate(0, 173.643, 373.865)" x="173.643" y="373.865">20</text>
</g>
<g clip-path="url(#clip6600)">
<text style="fill:#000000; fill-opacity:1; font-family:Arial,Helvetica Neue,Helvetica,sans-serif; font-size:12; text-anchor:middle;" transform="rotate(0, 309.2, 373.865)" x="309.2" y="373.865">40</text>
</g>
<g clip-path="url(#clip6600)">
<text style="fill:#000000; fill-opacity:1; font-family:Arial,Helvetica Neue,Helvetica,sans-serif; font-size:12; text-anchor:middle;" transform="rotate(0, 444.758, 373.865)" x="444.758" y="373.865">60</text>
</g>
<g clip-path="url(#clip6600)">
<text style="fill:#000000; fill-opacity:1; font-family:Arial,Helvetica Neue,Helvetica,sans-serif; font-size:12; text-anchor:middle;" transform="rotate(0, 580.315, 373.865)" x="580.315" y="373.865">80</text>
</g>
<g clip-path="url(#clip6600)">
<text style="fill:#000000; fill-opacity:1; font-family:Arial,Helvetica Neue,Helvetica,sans-serif; font-size:12; text-anchor:end;" transform="rotate(0, 32.0857, 364.565)" x="32.0857" y="364.565">0</text>
</g>
<g clip-path="url(#clip6600)">
<text style="fill:#000000; fill-opacity:1; font-family:Arial,Helvetica Neue,Helvetica,sans-serif; font-size:12; text-anchor:end;" transform="rotate(0, 32.0857, 248.481)" x="32.0857" y="248.481">1</text>
</g>
<g clip-path="url(#clip6600)">
<text style="fill:#000000; fill-opacity:1; font-family:Arial,Helvetica Neue,Helvetica,sans-serif; font-size:12; text-anchor:end;" transform="rotate(0, 32.0857, 132.396)" x="32.0857" y="132.396">2</text>
</g>
<g clip-path="url(#clip6600)">
<text style="fill:#000000; fill-opacity:1; font-family:Arial,Helvetica Neue,Helvetica,sans-serif; font-size:12; text-anchor:end;" transform="rotate(0, 32.0857, 16.311)" x="32.0857" y="16.311">3</text>
</g>
<g clip-path="url(#clip6600)">
<text style="fill:#000000; fill-opacity:1; font-family:Arial,Helvetica Neue,Helvetica,sans-serif; font-size:16; text-anchor:middle;" transform="rotate(0, 309.2, 397.6)" x="309.2" y="397.6">lines of code</text>
</g>
<g clip-path="url(#clip6600)">
<text style="fill:#000000; fill-opacity:1; font-family:Arial,Helvetica Neue,Helvetica,sans-serif; font-size:16; text-anchor:middle;" transform="rotate(-90, 14.4, 185.938)" x="14.4" y="185.938">cpu time, C = 1</text>
</g>
<circle clip-path="url(#clip6602)" style="fill:#000000; stroke:none; fill-opacity:1" cx="166.865" cy="76.2142" r="4"/>
<circle clip-path="url(#clip6602)" style="fill:#008000; stroke:none; fill-opacity:1" cx="166.865" cy="76.2142" r="3"/>
<circle clip-path="url(#clip6602)" style="fill:#000000; stroke:none; fill-opacity:1" cx="180.421" cy="146.978" r="4"/>
<circle clip-path="url(#clip6602)" style="fill:#ff00ff; stroke:none; fill-opacity:1" cx="180.421" cy="146.978" r="3"/>
<circle clip-path="url(#clip6602)" style="fill:#000000; stroke:none; fill-opacity:1" cx="180.421" cy="176.397" r="4"/>
<circle clip-path="url(#clip6602)" style="fill:#ff0000; stroke:none; fill-opacity:1" cx="180.421" cy="176.397" r="3"/>
<circle clip-path="url(#clip6602)" style="fill:#000000; stroke:none; fill-opacity:1" cx="234.644" cy="236.825" r="4"/>
<circle clip-path="url(#clip6602)" style="fill:#ffa500; stroke:none; fill-opacity:1" cx="234.644" cy="236.825" r="3"/>
<circle clip-path="url(#clip6602)" style="fill:#000000; stroke:none; fill-opacity:1" cx="275.311" cy="251.932" r="4"/>
<circle clip-path="url(#clip6602)" style="fill:#ffff00; stroke:none; fill-opacity:1" cx="275.311" cy="251.932" r="3"/>
<circle clip-path="url(#clip6602)" style="fill:#000000; stroke:none; fill-opacity:1" cx="458.313" cy="255.112" r="4"/>
<circle clip-path="url(#clip6602)" style="fill:#000000; stroke:none; fill-opacity:1" cx="458.313" cy="255.112" r="3"/>
<circle clip-path="url(#clip6602)" style="fill:#000000; stroke:none; fill-opacity:1" cx="553.203" cy="245.571" r="4"/>
<circle clip-path="url(#clip6602)" style="fill:#0000ff; stroke:none; fill-opacity:1" cx="553.203" cy="245.571" r="3"/>
<circle clip-path="url(#clip6602)" style="fill:#000000; stroke:none; fill-opacity:1" cx="559.981" cy="243.981" r="4"/>
<circle clip-path="url(#clip6602)" style="fill:#add8e6; stroke:none; fill-opacity:1" cx="559.981" cy="243.981" r="3"/>
<polygon clip-path="url(#clip6600)" points="
432.496,168.771 562.315,168.771 562.315,32.691 432.496,32.691 
  " fill="#ffffff" fill-opacity="1"/>
<polyline clip-path="url(#clip6600)" style="stroke:#000000; stroke-width:1; stroke-opacity:1; fill:none" points="
  432.496,168.771 562.315,168.771 562.315,32.691 432.496,32.691 432.496,168.771 
  "/>
<polyline clip-path="url(#clip6600)" style="stroke:#008000; stroke-width:1; stroke-opacity:1; fill:none" points="
  438.496,47.811 474.496,47.811 
  "/>
<circle clip-path="url(#clip6600)" style="fill:#000000; stroke:none; fill-opacity:1" cx="459.496" cy="47.811" r="6"/>
<circle clip-path="url(#clip6600)" style="fill:#008000; stroke:none; fill-opacity:1" cx="459.496" cy="47.811" r="5"/>
<g clip-path="url(#clip6600)">
<text style="fill:#000000; fill-opacity:1; font-family:Arial,Helvetica Neue,Helvetica,sans-serif; font-size:12; text-anchor:start;" transform="rotate(0, 480.496, 52.311)" x="480.496" y="52.311">Python</text>
</g>
<polyline clip-path="url(#clip6600)" style="stroke:#ff00ff; stroke-width:1; stroke-opacity:1; fill:none" points="
  438.496,62.931 474.496,62.931 
  "/>
<circle clip-path="url(#clip6600)" style="fill:#000000; stroke:none; fill-opacity:1" cx="459.496" cy="62.931" r="6"/>
<circle clip-path="url(#clip6600)" style="fill:#ff00ff; stroke:none; fill-opacity:1" cx="459.496" cy="62.931" r="5"/>
<g clip-path="url(#clip6600)">
<text style="fill:#000000; fill-opacity:1; font-family:Arial,Helvetica Neue,Helvetica,sans-serif; font-size:12; text-anchor:start;" transform="rotate(0, 480.496, 67.431)" x="480.496" y="67.431">Matlab</text>
</g>
<polyline clip-path="url(#clip6600)" style="stroke:#ff0000; stroke-width:1; stroke-opacity:1; fill:none" points="
  438.496,78.051 474.496,78.051 
  "/>
<circle clip-path="url(#clip6600)" style="fill:#000000; stroke:none; fill-opacity:1" cx="459.496" cy="78.051" r="6"/>
<circle clip-path="url(#clip6600)" style="fill:#ff0000; stroke:none; fill-opacity:1" cx="459.496" cy="78.051" r="5"/>
<g clip-path="url(#clip6600)">
<text style="fill:#000000; fill-opacity:1; font-family:Arial,Helvetica Neue,Helvetica,sans-serif; font-size:12; text-anchor:start;" transform="rotate(0, 480.496, 82.551)" x="480.496" y="82.551">Julia naive</text>
</g>
<polyline clip-path="url(#clip6600)" style="stroke:#ffa500; stroke-width:1; stroke-opacity:1; fill:none" points="
  438.496,93.171 474.496,93.171 
  "/>
<circle clip-path="url(#clip6600)" style="fill:#000000; stroke:none; fill-opacity:1" cx="459.496" cy="93.171" r="6"/>
<circle clip-path="url(#clip6600)" style="fill:#ffa500; stroke:none; fill-opacity:1" cx="459.496" cy="93.171" r="5"/>
<g clip-path="url(#clip6600)">
<text style="fill:#000000; fill-opacity:1; font-family:Arial,Helvetica Neue,Helvetica,sans-serif; font-size:12; text-anchor:start;" transform="rotate(0, 480.496, 97.671)" x="480.496" y="97.671">Julia</text>
</g>
<polyline clip-path="url(#clip6600)" style="stroke:#ffff00; stroke-width:1; stroke-opacity:1; fill:none" points="
  438.496,108.291 474.496,108.291 
  "/>
<circle clip-path="url(#clip6600)" style="fill:#000000; stroke:none; fill-opacity:1" cx="459.496" cy="108.291" r="6"/>
<circle clip-path="url(#clip6600)" style="fill:#ffff00; stroke:none; fill-opacity:1" cx="459.496" cy="108.291" r="5"/>
<g clip-path="url(#clip6600)">
<text style="fill:#000000; fill-opacity:1; font-family:Arial,Helvetica Neue,Helvetica,sans-serif; font-size:12; text-anchor:start;" transform="rotate(0, 480.496, 112.791)" x="480.496" y="112.791">Julia unrolled</text>
</g>
<polyline clip-path="url(#clip6600)" style="stroke:#000000; stroke-width:1; stroke-opacity:1; fill:none" points="
  438.496,123.411 474.496,123.411 
  "/>
<circle clip-path="url(#clip6600)" style="fill:#000000; stroke:none; fill-opacity:1" cx="459.496" cy="123.411" r="6"/>
<circle clip-path="url(#clip6600)" style="fill:#000000; stroke:none; fill-opacity:1" cx="459.496" cy="123.411" r="5"/>
<g clip-path="url(#clip6600)">
<text style="fill:#000000; fill-opacity:1; font-family:Arial,Helvetica Neue,Helvetica,sans-serif; font-size:12; text-anchor:start;" transform="rotate(0, 480.496, 127.911)" x="480.496" y="127.911">Fortran</text>
</g>
<polyline clip-path="url(#clip6600)" style="stroke:#0000ff; stroke-width:1; stroke-opacity:1; fill:none" points="
  438.496,138.531 474.496,138.531 
  "/>
<circle clip-path="url(#clip6600)" style="fill:#000000; stroke:none; fill-opacity:1" cx="459.496" cy="138.531" r="6"/>
<circle clip-path="url(#clip6600)" style="fill:#0000ff; stroke:none; fill-opacity:1" cx="459.496" cy="138.531" r="5"/>
<g clip-path="url(#clip6600)">
<text style="fill:#000000; fill-opacity:1; font-family:Arial,Helvetica Neue,Helvetica,sans-serif; font-size:12; text-anchor:start;" transform="rotate(0, 480.496, 143.031)" x="480.496" y="143.031">C++</text>
</g>
<polyline clip-path="url(#clip6600)" style="stroke:#add8e6; stroke-width:1; stroke-opacity:1; fill:none" points="
  438.496,153.651 474.496,153.651 
  "/>
<circle clip-path="url(#clip6600)" style="fill:#000000; stroke:none; fill-opacity:1" cx="459.496" cy="153.651" r="6"/>
<circle clip-path="url(#clip6600)" style="fill:#add8e6; stroke:none; fill-opacity:1" cx="459.496" cy="153.651" r="5"/>
<g clip-path="url(#clip6600)">
<text style="fill:#000000; fill-opacity:1; font-family:Arial,Helvetica Neue,Helvetica,sans-serif; font-size:12; text-anchor:start;" transform="rotate(0, 480.496, 158.151)" x="480.496" y="158.151">C</text>
</g>
</svg>
