<?xml version="1.0" encoding="utf-8"?>
<svg xmlns="http://www.w3.org/2000/svg" xmlns:xlink="http://www.w3.org/1999/xlink" width="600" height="400" viewBox="0 0 600 400">
<defs>
  <clipPath id="clip8800">
    <rect x="0" y="0" width="600" height="400"/>
  </clipPath>
</defs>
<polygon clip-path="url(#clip8800)" points="
0,400 600,400 600,0 0,0 
  " fill="#ffffff" fill-opacity="1"/>
<defs>
  <clipPath id="clip8801">
    <rect x="120" y="0" width="421" height="400"/>
  </clipPath>
</defs>
<polygon clip-path="url(#clip8800)" points="
38.1866,360.121 580.315,360.121 580.315,11.811 38.1866,11.811 
  " fill="#ffffff" fill-opacity="1"/>
<defs>
  <clipPath id="clip8802">
    <rect x="38" y="11" width="543" height="349"/>
  </clipPath>
</defs>
<polyline clip-path="url(#clip8802)" style="stroke:#000000; stroke-width:0.5; stroke-opacity:0.1; fill:none" points="
  38.1866,360.121 38.1866,11.811 
  "/>
<polyline clip-path="url(#clip8802)" style="stroke:#000000; stroke-width:0.5; stroke-opacity:0.1; fill:none" points="
  173.719,360.121 173.719,11.811 
  "/>
<polyline clip-path="url(#clip8802)" style="stroke:#000000; stroke-width:0.5; stroke-opacity:0.1; fill:none" points="
  309.251,360.121 309.251,11.811 
  "/>
<polyline clip-path="url(#clip8802)" style="stroke:#000000; stroke-width:0.5; stroke-opacity:0.1; fill:none" points="
  444.783,360.121 444.783,11.811 
  "/>
<polyline clip-path="url(#clip8802)" style="stroke:#000000; stroke-width:0.5; stroke-opacity:0.1; fill:none" points="
  580.315,360.121 580.315,11.811 
  "/>
<polyline clip-path="url(#clip8802)" style="stroke:#000000; stroke-width:0.5; stroke-opacity:0.1; fill:none" points="
  38.1866,360.121 580.315,360.121 
  "/>
<polyline clip-path="url(#clip8802)" style="stroke:#000000; stroke-width:0.5; stroke-opacity:0.1; fill:none" points="
  38.1866,290.459 580.315,290.459 
  "/>
<polyline clip-path="url(#clip8802)" style="stroke:#000000; stroke-width:0.5; stroke-opacity:0.1; fill:none" points="
  38.1866,220.797 580.315,220.797 
  "/>
<polyline clip-path="url(#clip8802)" style="stroke:#000000; stroke-width:0.5; stroke-opacity:0.1; fill:none" points="
  38.1866,151.135 580.315,151.135 
  "/>
<polyline clip-path="url(#clip8802)" style="stroke:#000000; stroke-width:0.5; stroke-opacity:0.1; fill:none" points="
  38.1866,81.4729 580.315,81.4729 
  "/>
<polyline clip-path="url(#clip8802)" style="stroke:#000000; stroke-width:0.5; stroke-opacity:0.1; fill:none" points="
  38.1866,11.811 580.315,11.811 
  "/>
<polyline clip-path="url(#clip8800)" style="stroke:#000000; stroke-width:1; stroke-opacity:1; fill:none" points="
  38.1866,360.121 580.315,360.121 
  "/>
<polyline clip-path="url(#clip8800)" style="stroke:#000000; stroke-width:1; stroke-opacity:1; fill:none" points="
  38.1866,360.121 38.1866,11.811 
  "/>
<polyline clip-path="url(#clip8800)" style="stroke:#000000; stroke-width:1; stroke-opacity:1; fill:none" points="
  38.1866,360.121 38.1866,354.896 
  "/>
<polyline clip-path="url(#clip8800)" style="stroke:#000000; stroke-width:1; stroke-opacity:1; fill:none" points="
  173.719,360.121 173.719,354.896 
  "/>
<polyline clip-path="url(#clip8800)" style="stroke:#000000; stroke-width:1; stroke-opacity:1; fill:none" points="
  309.251,360.121 309.251,354.896 
  "/>
<polyline clip-path="url(#clip8800)" style="stroke:#000000; stroke-width:1; stroke-opacity:1; fill:none" points="
  444.783,360.121 444.783,354.896 
  "/>
<polyline clip-path="url(#clip8800)" style="stroke:#000000; stroke-width:1; stroke-opacity:1; fill:none" points="
  580.315,360.121 580.315,354.896 
  "/>
<polyline clip-path="url(#clip8800)" style="stroke:#000000; stroke-width:1; stroke-opacity:1; fill:none" points="
  38.1866,360.121 46.3186,360.121 
  "/>
<polyline clip-path="url(#clip8800)" style="stroke:#000000; stroke-width:1; stroke-opacity:1; fill:none" points="
  38.1866,290.459 46.3186,290.459 
  "/>
<polyline clip-path="url(#clip8800)" style="stroke:#000000; stroke-width:1; stroke-opacity:1; fill:none" points="
  38.1866,220.797 46.3186,220.797 
  "/>
<polyline clip-path="url(#clip8800)" style="stroke:#000000; stroke-width:1; stroke-opacity:1; fill:none" points="
  38.1866,151.135 46.3186,151.135 
  "/>
<polyline clip-path="url(#clip8800)" style="stroke:#000000; stroke-width:1; stroke-opacity:1; fill:none" points="
  38.1866,81.4729 46.3186,81.4729 
  "/>
<polyline clip-path="url(#clip8800)" style="stroke:#000000; stroke-width:1; stroke-opacity:1; fill:none" points="
  38.1866,11.811 46.3186,11.811 
  "/>
<g clip-path="url(#clip8800)">
<text style="fill:#000000; fill-opacity:1; font-family:Arial,Helvetica Neue,Helvetica,sans-serif; font-size:12; text-anchor:middle;" transform="rotate(0, 38.1866, 373.921)" x="38.1866" y="373.921">0</text>
</g>
<g clip-path="url(#clip8800)">
<text style="fill:#000000; fill-opacity:1; font-family:Arial,Helvetica Neue,Helvetica,sans-serif; font-size:12; text-anchor:middle;" transform="rotate(0, 173.719, 373.921)" x="173.719" y="373.921">20</text>
</g>
<g clip-path="url(#clip8800)">
<text style="fill:#000000; fill-opacity:1; font-family:Arial,Helvetica Neue,Helvetica,sans-serif; font-size:12; text-anchor:middle;" transform="rotate(0, 309.251, 373.921)" x="309.251" y="373.921">40</text>
</g>
<g clip-path="url(#clip8800)">
<text style="fill:#000000; fill-opacity:1; font-family:Arial,Helvetica Neue,Helvetica,sans-serif; font-size:12; text-anchor:middle;" transform="rotate(0, 444.783, 373.921)" x="444.783" y="373.921">60</text>
</g>
<g clip-path="url(#clip8800)">
<text style="fill:#000000; fill-opacity:1; font-family:Arial,Helvetica Neue,Helvetica,sans-serif; font-size:12; text-anchor:middle;" transform="rotate(0, 580.315, 373.921)" x="580.315" y="373.921">80</text>
</g>
<g clip-path="url(#clip8800)">
<text style="fill:#000000; fill-opacity:1; font-family:Arial,Helvetica Neue,Helvetica,sans-serif; font-size:12; text-anchor:end;" transform="rotate(0, 32.1866, 364.621)" x="32.1866" y="364.621">0</text>
</g>
<g clip-path="url(#clip8800)">
<text style="fill:#000000; fill-opacity:1; font-family:Arial,Helvetica Neue,Helvetica,sans-serif; font-size:12; text-anchor:end;" transform="rotate(0, 32.1866, 294.959)" x="32.1866" y="294.959">1</text>
</g>
<g clip-path="url(#clip8800)">
<text style="fill:#000000; fill-opacity:1; font-family:Arial,Helvetica Neue,Helvetica,sans-serif; font-size:12; text-anchor:end;" transform="rotate(0, 32.1866, 225.297)" x="32.1866" y="225.297">2</text>
</g>
<g clip-path="url(#clip8800)">
<text style="fill:#000000; fill-opacity:1; font-family:Arial,Helvetica Neue,Helvetica,sans-serif; font-size:12; text-anchor:end;" transform="rotate(0, 32.1866, 155.635)" x="32.1866" y="155.635">3</text>
</g>
<g clip-path="url(#clip8800)">
<text style="fill:#000000; fill-opacity:1; font-family:Arial,Helvetica Neue,Helvetica,sans-serif; font-size:12; text-anchor:end;" transform="rotate(0, 32.1866, 85.9729)" x="32.1866" y="85.9729">4</text>
</g>
<g clip-path="url(#clip8800)">
<text style="fill:#000000; fill-opacity:1; font-family:Arial,Helvetica Neue,Helvetica,sans-serif; font-size:12; text-anchor:end;" transform="rotate(0, 32.1866, 16.311)" x="32.1866" y="16.311">5</text>
</g>
<g clip-path="url(#clip8800)">
<text style="fill:#000000; fill-opacity:1; font-family:Arial,Helvetica Neue,Helvetica,sans-serif; font-size:16; text-anchor:middle;" transform="rotate(0, 309.251, 397.6)" x="309.251" y="397.6">lines of code</text>
</g>
<g clip-path="url(#clip8800)">
<text style="fill:#000000; fill-opacity:1; font-family:Arial,Helvetica Neue,Helvetica,sans-serif; font-size:16; text-anchor:middle;" transform="rotate(-90, 14.4, 185.966)" x="14.4" y="185.966">cpu time, C = 1</text>
</g>
<circle clip-path="url(#clip8802)" style="fill:#000000; stroke:none; fill-opacity:1" cx="166.942" cy="55.271" r="4"/>
<circle clip-path="url(#clip8802)" style="fill:#ff0000; stroke:none; fill-opacity:1" cx="166.942" cy="55.271" r="3"/>
<circle clip-path="url(#clip8802)" style="fill:#000000; stroke:none; fill-opacity:1" cx="180.495" cy="166.125" r="4"/>
<circle clip-path="url(#clip8802)" style="fill:#ffa500; stroke:none; fill-opacity:1" cx="180.495" cy="166.125" r="3"/>
<circle clip-path="url(#clip8802)" style="fill:#000000; stroke:none; fill-opacity:1" cx="221.155" cy="285.294" r="4"/>
<circle clip-path="url(#clip8802)" style="fill:#ffff00; stroke:none; fill-opacity:1" cx="221.155" cy="285.294" r="3"/>
<circle clip-path="url(#clip8802)" style="fill:#000000; stroke:none; fill-opacity:1" cx="458.336" cy="301.04" r="4"/>
<circle clip-path="url(#clip8802)" style="fill:#800080; stroke:none; fill-opacity:1" cx="458.336" cy="301.04" r="3"/>
<circle clip-path="url(#clip8802)" style="fill:#000000; stroke:none; fill-opacity:1" cx="553.209" cy="290.459" r="4"/>
<circle clip-path="url(#clip8802)" style="fill:#0000ff; stroke:none; fill-opacity:1" cx="553.209" cy="290.459" r="3"/>
<circle clip-path="url(#clip8802)" style="fill:#000000; stroke:none; fill-opacity:1" cx="559.985" cy="290.459" r="4"/>
<circle clip-path="url(#clip8802)" style="fill:#add8e6; stroke:none; fill-opacity:1" cx="559.985" cy="290.459" r="3"/>
<polygon clip-path="url(#clip8800)" points="
463.531,138.531 562.315,138.531 562.315,32.691 463.531,32.691 
  " fill="#ffffff" fill-opacity="1"/>
<polyline clip-path="url(#clip8800)" style="stroke:#000000; stroke-width:1; stroke-opacity:1; fill:none" points="
  463.531,138.531 562.315,138.531 562.315,32.691 463.531,32.691 463.531,138.531 
  "/>
<polyline clip-path="url(#clip8800)" style="stroke:#ff0000; stroke-width:1; stroke-opacity:1; fill:none" points="
  469.531,47.811 505.531,47.811 
  "/>
<circle clip-path="url(#clip8800)" style="fill:#000000; stroke:none; fill-opacity:1" cx="490.531" cy="47.811" r="6"/>
<circle clip-path="url(#clip8800)" style="fill:#ff0000; stroke:none; fill-opacity:1" cx="490.531" cy="47.811" r="5"/>
<g clip-path="url(#clip8800)">
<text style="fill:#000000; fill-opacity:1; font-family:Arial,Helvetica Neue,Helvetica,sans-serif; font-size:12; text-anchor:start;" transform="rotate(0, 511.531, 52.311)" x="511.531" y="52.311">Python</text>
</g>
<polyline clip-path="url(#clip8800)" style="stroke:#ffa500; stroke-width:1; stroke-opacity:1; fill:none" points="
  469.531,62.931 505.531,62.931 
  "/>
<circle clip-path="url(#clip8800)" style="fill:#000000; stroke:none; fill-opacity:1" cx="490.531" cy="62.931" r="6"/>
<circle clip-path="url(#clip8800)" style="fill:#ffa500; stroke:none; fill-opacity:1" cx="490.531" cy="62.931" r="5"/>
<g clip-path="url(#clip8800)">
<text style="fill:#000000; fill-opacity:1; font-family:Arial,Helvetica Neue,Helvetica,sans-serif; font-size:12; text-anchor:start;" transform="rotate(0, 511.531, 67.431)" x="511.531" y="67.431">Matlab</text>
</g>
<polyline clip-path="url(#clip8800)" style="stroke:#ffff00; stroke-width:1; stroke-opacity:1; fill:none" points="
  469.531,78.051 505.531,78.051 
  "/>
<circle clip-path="url(#clip8800)" style="fill:#000000; stroke:none; fill-opacity:1" cx="490.531" cy="78.051" r="6"/>
<circle clip-path="url(#clip8800)" style="fill:#ffff00; stroke:none; fill-opacity:1" cx="490.531" cy="78.051" r="5"/>
<g clip-path="url(#clip8800)">
<text style="fill:#000000; fill-opacity:1; font-family:Arial,Helvetica Neue,Helvetica,sans-serif; font-size:12; text-anchor:start;" transform="rotate(0, 511.531, 82.551)" x="511.531" y="82.551">Julia</text>
</g>
<polyline clip-path="url(#clip8800)" style="stroke:#800080; stroke-width:1; stroke-opacity:1; fill:none" points="
  469.531,93.171 505.531,93.171 
  "/>
<circle clip-path="url(#clip8800)" style="fill:#000000; stroke:none; fill-opacity:1" cx="490.531" cy="93.171" r="6"/>
<circle clip-path="url(#clip8800)" style="fill:#800080; stroke:none; fill-opacity:1" cx="490.531" cy="93.171" r="5"/>
<g clip-path="url(#clip8800)">
<text style="fill:#000000; fill-opacity:1; font-family:Arial,Helvetica Neue,Helvetica,sans-serif; font-size:12; text-anchor:start;" transform="rotate(0, 511.531, 97.671)" x="511.531" y="97.671">Fortran</text>
</g>
<polyline clip-path="url(#clip8800)" style="stroke:#0000ff; stroke-width:1; stroke-opacity:1; fill:none" points="
  469.531,108.291 505.531,108.291 
  "/>
<circle clip-path="url(#clip8800)" style="fill:#000000; stroke:none; fill-opacity:1" cx="490.531" cy="108.291" r="6"/>
<circle clip-path="url(#clip8800)" style="fill:#0000ff; stroke:none; fill-opacity:1" cx="490.531" cy="108.291" r="5"/>
<g clip-path="url(#clip8800)">
<text style="fill:#000000; fill-opacity:1; font-family:Arial,Helvetica Neue,Helvetica,sans-serif; font-size:12; text-anchor:start;" transform="rotate(0, 511.531, 112.791)" x="511.531" y="112.791">C++</text>
</g>
<polyline clip-path="url(#clip8800)" style="stroke:#add8e6; stroke-width:1; stroke-opacity:1; fill:none" points="
  469.531,123.411 505.531,123.411 
  "/>
<circle clip-path="url(#clip8800)" style="fill:#000000; stroke:none; fill-opacity:1" cx="490.531" cy="123.411" r="6"/>
<circle clip-path="url(#clip8800)" style="fill:#add8e6; stroke:none; fill-opacity:1" cx="490.531" cy="123.411" r="5"/>
<g clip-path="url(#clip8800)">
<text style="fill:#000000; fill-opacity:1; font-family:Arial,Helvetica Neue,Helvetica,sans-serif; font-size:12; text-anchor:start;" transform="rotate(0, 511.531, 127.911)" x="511.531" y="127.911">C</text>
</g>
</svg>
